<svg width="32" height="32" viewBox="0 0 32 32" fill="none" xmlns="http://www.w3.org/2000/svg">
  <!-- Flame shape background -->
  <path d="M16 4C12 8 10 12 12 16C10 18 12 20 14 20C16 22 18 22 20 20C22 18 24 16 22 12C24 8 20 4 16 4Z" fill="#f97316"/>
  <path d="M16 6C13 9 12 12 14 15C13 16 14 17 15 17C16 18 17 18 18 17C19 16 20 15 19 12C20 9 17 6 16 6Z" fill="#eab308"/>
  <!-- Brain/circuit pattern -->
  <circle cx="16" cy="14" r="6" fill="#2563eb"/>
  <circle cx="14" cy="12" r="1" fill="#facc15"/>
  <circle cx="18" cy="12" r="1" fill="#facc15"/>
  <circle cx="16" cy="16" r="1" fill="#facc15"/>
  <path d="M14 12L16 16L18 12" stroke="#facc15" stroke-width="0.5" fill="none"/>
</svg>